<?xml version="1.0" encoding="utf-8"?>
<!-- Generator: Adobe Illustrator 21.1.0, SVG Export Plug-In . SVG Version: 6.00 Build 0)  -->
<svg version="1.1" id="Calque_1" xmlns="http://www.w3.org/2000/svg" xmlns:xlink="http://www.w3.org/1999/xlink" x="0px" y="0px"
	 viewBox="0 0 1366 768" style="enable-background:new 0 0 1366 768;" xml:space="preserve">
<style type="text/css">
	.st0{fill:#CF2A43;}
</style>
<g>
	<path class="st0" d="M234.9,373.3c3.7-14.4,13-24.9,23.3-35.2C361.6,235,464.8,131.7,568.1,28.4c25.8-25.8,52.9-25.9,78.7-0.1
		c7.7,7.6,15.3,15.3,22.9,23c21.7,22,21.9,51.2,0.1,73.2c-45.2,45.6-90.7,91-136.1,136.5c-15.1,15.1-30.1,30.2-45.2,45.3
		c-1.3,1.4-2.6,2.8-5.1,5.6c4.2,0,6.7,0,9.2,0c196.3,0,392.6,0,588.9,0c28.9,0,50.6,21.2,50.9,50c0.1,12.6,0.1,25.1,0,37.7
		c-0.2,30.6-21.9,52.5-52.4,52.6c-64.6,0.1-129.1,0-193.7,0c-131.2,0-262.3,0-393.5,0c-3.2,0-6.3,0-11.6,0c3.4,3.6,5.6,6,8,8.4
		c59.6,59.4,119.2,118.8,178.7,178.2c24.3,24.3,24.3,51.6,0,76c-8.4,8.5-16.8,17.1-25.5,25.4c-20.6,19.7-49.8,19.9-69.9-0.1
		C464.8,632.5,357.1,525,249.8,417c-6.8-6.9-10.1-17.3-15-26.1C234.9,385,234.9,379.2,234.9,373.3z"/>
</g>
</svg>
