<?xml version="1.0" encoding="utf-8"?>
<!-- Generator: Adobe Illustrator 23.0.0, SVG Export Plug-In . SVG Version: 6.00 Build 0)  -->
<svg version="1.1" id="Calque_1" xmlns="http://www.w3.org/2000/svg" xmlns:xlink="http://www.w3.org/1999/xlink" x="0px" y="0px"
	 viewBox="0 0 457 457" style="enable-background:new 0 0 457 457;" xml:space="preserve">
<style type="text/css">
	.st0{fill:#BA3941;}
</style>
<path class="st0" d="M402.7,103.3L302,2.7C300.3,1,298,0,295.5,0H61.3c-5.1,0-9.1,4.1-9.1,9.1v438.7c0,5.1,4.1,9.1,9.1,9.1h335
	c5.1,0,9.1-4.1,9.1-9.1V109.7C405.4,107.3,404.4,105,402.7,103.3z M304.7,31.2l69.5,69.4h-69.5V31.2z M70.4,438.7V18.3h216v91.4
	c0,5.1,4.1,9.1,9.1,9.1h91.5v319.9H70.4z"/>
<path class="st0" d="M351.5,154.5H106c-5.1,0-9.1,4.1-9.1,9.1c0,5,4.1,9.1,9.1,9.1h245.5c5.1,0,9.1-4.1,9.1-9.1
	C360.7,158.6,356.6,154.5,351.5,154.5z"/>
<path class="st0" d="M351.5,212.1H106c-5.1,0-9.1,4.1-9.1,9.1c0,5.1,4.1,9.1,9.1,9.1h245.5c5.1,0,9.1-4.1,9.1-9.1
	C360.7,216.2,356.6,212.1,351.5,212.1z"/>
<path class="st0" d="M351.5,269.7H106c-5.1,0-9.1,4.1-9.1,9.1c0,5.1,4.1,9.1,9.1,9.1h245.5c5.1,0,9.1-4.1,9.1-9.1
	C360.7,273.7,356.6,269.7,351.5,269.7z"/>
<path class="st0" d="M351.5,327.2H106c-5.1,0-9.1,4.1-9.1,9.1c0,5,4.1,9.1,9.1,9.1h245.5c5.1,0,9.1-4.1,9.1-9.1
	C360.7,331.3,356.6,327.2,351.5,327.2z"/>
<path class="st0" d="M351.5,384.8H106c-5.1,0-9.1,4.1-9.1,9.1s4.1,9.1,9.1,9.1h245.5c5.1,0,9.1-4.1,9.1-9.1S356.6,384.8,351.5,384.8
	z"/>
<path class="st0" d="M153.3,109.7c7.8,0,14-1.9,16.8-3.4l-1.8-8c-3,1.3-7,2.9-13,2.9c-11.6,0-20.3-8.3-20.3-21.8
	c0-12.2,7.2-22.1,20.6-22.1c5.8,0,9.8,1.3,12.3,2.8l2.4-8.2c-2.9-1.4-8.4-3-14.7-3c-19,0-31.3,13-31.3,31
	C124.2,97.8,135.7,109.7,153.3,109.7z"/>
<path class="st0" d="M209.7,108.5l22.9-58.3h-11.1L210.2,83c-1.9,5.3-3.6,10.1-4.9,14.9h-0.4c-1.2-4.8-2.8-9.6-4.7-14.9l-11.5-32.8
	h-11.3l22.2,58.3H209.7z"/>
</svg>
