<?xml version="1.0" encoding="utf-8"?>
<!-- Generator: Adobe Illustrator 23.0.0, SVG Export Plug-In . SVG Version: 6.00 Build 0)  -->
<svg version="1.1" id="Calque_1" xmlns="http://www.w3.org/2000/svg" xmlns:xlink="http://www.w3.org/1999/xlink" x="0px" y="0px"
	 viewBox="0 0 769 768" style="enable-background:new 0 0 769 768;" xml:space="preserve">
<style type="text/css">
	.st0{fill:#BA3941;}
</style>
<g>
	<g>
		
			<image style="overflow:visible;opacity:0.75;" width="678" height="678" xlink:href="1DB932B8.png"  transform="matrix(1 0 0 1 88.6812 75.6812)">
		</image>
		<g>
			<path class="st0" d="M409.4,683c-12.7,0-25.5,0-38.2,0c-7.7-0.9-15.4-1.6-23-2.8c-76.6-11.7-141-46.1-190.9-105.5
				c-60.4-71.9-85-155.6-67.9-247.7C113.1,198.5,190.8,115.6,316.7,81c74.5-20.5,147.6-10.6,215.8,26
				c86.8,46.6,139.3,119.3,158.6,215.9c2.3,11.6,3.3,23.5,4.9,35.3c0,12.7,0,25.5,0,38.2c-0.5,4.3-1.1,8.6-1.5,12.9
				c-6,53-23.8,101.6-55.1,144.9C591,621.3,525.9,662.5,444.7,678.1C433.1,680.3,421.2,681.4,409.4,683z M338.3,486.1
				c48.2-48.2,96.3-96.2,143.9-143.7c-18.7-18.8-38-38.2-56.8-57.1c-48,47.9-96,96-144,143.9C300.4,448.2,319.8,467.6,338.3,486.1z
				 M256.9,452.1c-4.6,4.7-9.7,9.4-14.2,14.7c-2.2,2.6-4.2,5.9-4.9,9.2c-3.9,16.4-7.4,33-11.1,49.5c-2.7,12.4,3.7,18.8,16.2,16.1
				c16.7-3.7,33.4-7.4,50-11.3c2.4-0.6,5.1-1.5,6.9-3.1c5.7-5.2,11.1-10.8,16.2-15.7C296.2,491.5,276.7,471.9,256.9,452.1z
				 M448.2,261.1c19.8,19.8,39.1,39.2,58.6,58.7c9.7-9.6,19.7-19.2,29.4-29.1c3.3-3.4,3-7.9-0.4-11.3
				c-15.5-15.7-31.1-31.3-46.8-46.8c-3.8-3.8-8.4-3.8-12.3-0.1C466.9,242,457.5,251.6,448.2,261.1z"/>
		</g>
	</g>
</g>
</svg>
