<?xml version="1.0" encoding="utf-8"?>
<!-- Generator: Adobe Illustrator 21.1.0, SVG Export Plug-In . SVG Version: 6.00 Build 0)  -->
<svg version="1.1" id="Calque_1" xmlns="http://www.w3.org/2000/svg" xmlns:xlink="http://www.w3.org/1999/xlink" x="0px" y="0px"
	 viewBox="0 0 1280 1024" style="enable-background:new 0 0 1280 1024;" xml:space="preserve">
<style type="text/css">
	.st0{fill:none;stroke:#BA3941;stroke-width:7;stroke-linecap:round;stroke-linejoin:round;stroke-miterlimit:10;}
	.st1{fill:none;stroke:#BA3941;stroke-width:7;stroke-miterlimit:10;}
	.st2{fill:none;stroke:#BA3941;stroke-width:7;stroke-linejoin:bevel;stroke-miterlimit:10;}
	.st3{fill:none;stroke:#FFFFFF;stroke-width:7;stroke-miterlimit:10;}
</style>
<g id="débouchés_1_">
	<g>
		<path class="st0" d="M599.4,707.2c-15.7,13-38.9,21.9-38.9,29.1c1.4,6.2,10.8,0.2,16.4-4.4c-3,4.4-9.3,12.9-4.9,15.8
			c3.9,1.2,13.7-11.2,16.6-14.7c0.2,2.2-5.8,16-5.2,17.7c1.9,5,8.5,5.7,11.9,1.7c5.2-6.1,7-13.7,10.9-22.4
			c7.1-8.9,16.7-12.9,18.2-17.9"/>
		<path class="st0" d="M601.2,544.6v100.4c-9.2-2.6-18.3-5.7-27.2-9.4V534.4L601.2,544.6z"/>
		<path class="st0" d="M768,702.6c15.6,12.6,38,21.3,38,28.3c-1.4,6.2-10.7,0.2-16.3-4.4c3,4.4,9.3,12.9,4.9,15.8
			c-3.8,1.2-13.7-11.2-16.6-14.7c-0.2,2.2,5.7,16,5.2,17.7c-1.8,5-8.5,5.7-11.9,1.7c-5.2-6.1-6.9-13.7-10.9-22.4
			c-6.1-7.6-14.1-11.7-17.1-15.9"/>
		<path class="st0" d="M782,534.4v98.7c-8.9,3.9-18,7.3-27.2,10.1v-98.6L782,534.4z"/>
		<ellipse id="tete_41_" class="st1" cx="677.2" cy="389.3" rx="210.6" ry="166.4"/>
		<path id="fond_63_" class="st1" d="M860.3,397.2c-42.6,33.6-82.4,55.7-119.8,68l-0.1,0.1c-54.7,18-104.2,15.3-150.1-2.3h-0.1
			c-36.2-13.8-70.1-36.8-102.5-66c26.3-25.1,52.1-45.4,77.6-60.6v-0.1c10.4-6.2,20.8-11.6,31.1-16.2c53-23.5,104.5-25.1,154.4-4.9
			c1.1,0.5,2.2,0.9,3.3,1.4C790.4,332,825.7,358.8,860.3,397.2z"/>
		<path id="iris_41_" class="st1" d="M787.3,389.4c0,24.7-7.9,47.5-21.4,66.1c-8.6,3.8-17.1,7-25.4,9.7l-0.1,0.1
			c-54.7,18-104.2,15.3-150.1-2.3h-0.1c-1.1-0.4-2.2-0.9-3.3-1.3c-16.3-19.6-26.1-44.8-26.1-72.3c0-22.2,6.4-42.9,17.5-60.4
			c6.1-3.3,12.1-6.2,18.2-8.9c53-23.5,104.5-25.1,154.4-4.9c1.1,0.5,2.2,0.9,3.3,1.4c3.5,1.5,7,3.1,10.5,4.8v0.1
			C778.9,340.4,787.3,363.9,787.3,389.4z"/>
		<path id="pupille_41_" class="st2" d="M761.4,360c0,48.2-39.1,87.3-87.3,87.3c-48.2,0-87.3-39.1-87.3-87.3
			c0-14.4,3.5-27.9,9.7-39.9v-0.1h0.1c52.1-23.1,102.7-25.1,151.8-5.8C756.6,327.6,761.4,343.3,761.4,360z"/>
		<path class="st0" d="M674.1,491.4c-16.4,47.5-21.2,82-8.5,96.6c4.3,5,12.6,4.9,16.4-0.5C693.8,570.6,683.3,530.4,674.1,491.4z"/>
		<path class="st0" d="M802.4,461.6c8.1,40.3,19,66.5,34,71.5c5.1,1.7,10.9-1.7,11.3-7.1C849.1,509.3,825,485.3,802.4,461.6z"/>
		<path class="st0" d="M559.2,461.6c-8.1,40.3-19,66.5-34,71.5c-5.1,1.7-10.9-1.7-11.3-7.1C512.5,509.3,536.6,485.3,559.2,461.6z"/>
		<path class="st0" d="M674.1,284.5c-16.4-47.5-21.2-82-8.5-96.6c4.3-5,12.6-4.9,16.4,0.5C693.8,205.3,683.3,245.5,674.1,284.5z"/>
		<path class="st0" d="M802.4,314.3c8.1-40.3,19-66.5,34-71.5c5.1-1.7,10.9,1.7,11.3,7.1C849.1,266.6,825,290.6,802.4,314.3z"/>
		<path class="st0" d="M559.2,314.3c-8.1-40.3-19-66.5-34-71.5c-5.1-1.7-10.9,1.7-11.3,7.1C512.5,266.6,536.6,290.6,559.2,314.3z"/>
	</g>
	<ellipse transform="matrix(0.6666 -0.7454 0.7454 0.6666 -64.8906 632.9614)" class="st3" cx="675.1" cy="389" rx="327" ry="327"/>
	<path class="st3" d="M873.7,566.6C847.4,596,816,618.2,782,633.1c-8.9,3.9-18,7.3-27.2,10.1c-49.7,15.6-103.3,16.2-153.6,1.7
		c-9.2-2.6-18.3-5.7-27.2-9.4c-27.3-11.2-53.2-27.2-76.4-47.9c-109.7-98.1-119-266.4-21-376.1c98.1-109.7,266.4-119.1,376.1-21
		C962.3,288.5,971.7,456.9,873.7,566.6z"/>
	<path class="st3" d="M504.8,667.6L302.6,893.7c-15.9,17.7-46.6,16-68.8-3.8s-27.2-50.2-11.4-67.9L424,596.5"/>
</g>
</svg>
