<?xml version="1.0" encoding="utf-8"?>
<!-- Generator: Adobe Illustrator 23.0.0, SVG Export Plug-In . SVG Version: 6.00 Build 0)  -->
<svg version="1.1" id="Calque_2" xmlns="http://www.w3.org/2000/svg" xmlns:xlink="http://www.w3.org/1999/xlink" x="0px" y="0px"
	 viewBox="0 0 1280 1024" style="enable-background:new 0 0 1280 1024;" xml:space="preserve">
<style type="text/css">
	.st0{fill:none;stroke:#BA3941;stroke-width:3.6669;stroke-linecap:round;stroke-linejoin:round;stroke-miterlimit:10;}
	.st1{fill:none;stroke:#BA3941;stroke-width:3.6669;stroke-miterlimit:10;}
	.st2{fill:none;stroke:#BA3941;stroke-width:3.6669;stroke-linejoin:bevel;stroke-miterlimit:10;}
	.st3{fill:none;stroke:#FFFFFF;stroke-width:3.6669;stroke-miterlimit:10;}
</style>
<g id="projet_illu">
	<g id="logo_25_">
		<path class="st0" d="M541.5,526.7l0,168.7c-19.2,19.3-54.7,31.8-54.7,41.7c1.8,7.9,13.6,0.2,20.6-5.5c-3.8,5.6-11.7,16.2-6.1,20
			c4.8,1.4,17.3-14.3,20.9-18.6c0.3,2.7-7.3,20.3-6.5,22.3c2.3,6.2,10.7,7.2,15,2.1c6.5-7.7,8.7-17.3,13.7-28.3
			c9.8-12.3,23.4-17.3,23.3-24.5l0-168.3L541.5,526.7z"/>
		<path class="st0" d="M742,526.7l0,168.7c19.2,19.3,54.7,31.8,54.7,41.7c-1.8,7.9-13.6,0.2-20.6-5.5c3.8,5.6,11.7,16.2,6.1,20
			c-4.8,1.4-17.3-14.3-20.9-18.6c-0.3,2.7,7.3,20.3,6.5,22.3c-2.3,6.2-10.7,7.2-15,2.1c-6.5-7.7-8.7-17.3-13.7-28.3
			c-9.8-12.3-23.4-17.3-23.3-24.5l0-168.3L742,526.7z"/>
		<ellipse id="tete_32_" class="st1" cx="641.1" cy="386.9" rx="203" ry="160.4"/>
		<path id="fond_54_" class="st1" d="M817.5,394.5c-41.1,32.4-79.4,53.6-115.5,65.5l-0.1,0.1c-52.7,17.3-100.5,14.7-144.7-2.2h-0.1
			c-34.9-13.3-67.6-35.5-98.7-63.6c25.3-24.2,50.2-43.7,74.8-58.4v-0.1c10-6,20-11.2,30-15.6c51.1-22.6,100.7-24.2,148.8-4.7
			c1,0.4,2.1,0.9,3.1,1.3C750.1,331.6,784.2,357.5,817.5,394.5z"/>
		<path id="iris_32_" class="st1" d="M747.1,387c0,23.8-7.6,45.8-20.6,63.7c-8.3,3.6-16.4,6.7-24.5,9.4l-0.1,0.1
			c-52.7,17.3-100.5,14.7-144.7-2.2h-0.1c-1-0.4-2.1-0.8-3.1-1.3c-15.7-18.9-25.2-43.2-25.2-69.7c0-21.4,6.1-41.3,16.8-58.2
			c5.9-3.1,11.7-6,17.5-8.6c51.1-22.6,100.7-24.2,148.8-4.7c1,0.4,2.1,0.9,3.1,1.3c3.4,1.4,6.7,3,10.1,4.6v0.1
			C739,339.8,747.1,362.4,747.1,387z"/>
		<path id="pupille_32_" class="st2" d="M722.1,358.7c0,46.5-37.7,84.1-84.1,84.1c-46.4,0-84.1-37.6-84.1-84.1
			c0-13.9,3.4-26.9,9.3-38.4v-0.1h0.1c50.2-22.2,99-24.2,146.3-5.6C717.5,327.4,722.1,342.5,722.1,358.7z"/>
		<path class="st0" d="M638,485.3c-15.8,45.8-20.4,79-8.2,93.1c4.2,4.8,12.1,4.7,15.8-0.5C657,561.6,646.9,522.8,638,485.3z"/>
		<path class="st0" d="M761.7,456.6c7.9,38.8,18.3,64.1,32.8,68.9c4.9,1.7,10.5-1.7,10.9-6.9C806.6,502.5,783.5,479.4,761.7,456.6z"
			/>
		<path class="st0" d="M527.3,456.6c-7.9,38.8-18.3,64.1-32.8,68.9c-4.9,1.7-10.5-1.7-10.9-6.9C482.3,502.5,505.5,479.4,527.3,456.6
			z"/>
		<path class="st0" d="M638,285.9c-15.8-45.8-20.4-79-8.2-93.1c4.2-4.8,12.1-4.7,15.8,0.5C657,209.6,646.9,248.4,638,285.9z"/>
		<path class="st0" d="M761.7,314.6c7.9-38.8,18.3-64.1,32.8-68.9c4.9-1.7,10.5,1.7,10.9,6.9C806.6,268.6,783.5,291.8,761.7,314.6z"
			/>
		<path class="st0" d="M527.3,314.6c-7.9-38.8-18.3-64.1-32.8-68.9c-4.9-1.7-10.5,1.7-10.9,6.9C482.3,268.6,505.5,291.8,527.3,314.6
			z"/>
	</g>
	<path class="st3" d="M926.7,349.6v456.1c0,23.8-19.3,43.1-43.1,43.1H396.3c-23.8,0-43.1-19.3-43.1-43.1V163.4
		c0-23.8,19.3-43.1,43.1-43.1h487.3c23.8,0,43.1,19.3,43.1,43.1v84.1"/>
	<path class="st3" d="M973.4,373.9V865c0,23.8-19.3,43.1-43.1,43.1H349.6c-23.8,0-43.1-19.3-43.1-43.1V104.1
		c0-23.8,19.3-43.1,43.1-43.1h580.7c23.8,0,43.1,19.3,43.1,43.1v228.4"/>
	<g id="pinceau">
		<path class="st3" d="M961,321.7c7.2-20.5-0.9-47-21.7-65.2c-4.5-3.9-9.3-7.2-14.2-9.9c-32.7-19.3-73-25.9-114-27.3
			c23.8,23,32,46.2,37.6,65.7c8,21.4,9.1,34.2,24.3,47.5c20.8,18.2,48.2,22.7,67.6,12.8"/>
		<g>
			<path class="st3" d="M854.2,303.6c7.6-8,12.9-2.9,20.5-10.9c7.6-8,2.3-13,9.9-21c7.6-8,12.9-2.9,20.5-10.9c7.6-8,2.3-13,9.9-21"
				/>
		</g>
		<path class="st3" d="M961,321.7l246.6,215.6c6.7,5.9,7.6,15.9,1.9,22.4c-5.7,6.5-15.7,7-22.5,1.1L940.5,345.2
			c4.7-2.4,9-5.6,12.5-9.7C956.7,331.3,959.3,326.7,961,321.7z"/>
	</g>
</g>
</svg>
