<?xml version="1.0" encoding="utf-8"?>
<!-- Generator: Adobe Illustrator 23.0.0, SVG Export Plug-In . SVG Version: 6.00 Build 0)  -->
<svg version="1.1" id="Calque_1" xmlns="http://www.w3.org/2000/svg" xmlns:xlink="http://www.w3.org/1999/xlink" x="0px" y="0px"
	 viewBox="0 0 1280 1024" style="enable-background:new 0 0 1280 1024;" xml:space="preserve">
<style type="text/css">
	.st0{fill:none;stroke:#BA3941;stroke-width:4.1754;stroke-linecap:round;stroke-linejoin:round;stroke-miterlimit:10;}
	.st1{fill:none;stroke:#BA3941;stroke-width:4.1754;stroke-miterlimit:10;}
	.st2{fill:none;stroke:#BA3941;stroke-width:4.1754;stroke-linejoin:bevel;stroke-miterlimit:10;}
	.st3{fill:none;stroke:#FFFFFF;stroke-width:3.1315;stroke-linecap:round;stroke-linejoin:round;stroke-miterlimit:10;}
	.st4{fill:none;stroke:#FFFFFF;stroke-width:4.1754;stroke-linecap:round;stroke-linejoin:round;stroke-miterlimit:10;}
</style>
<g id="Calque_3">
	<g id="étudiant_illu">
		<g id="logo_23_">
			<path class="st0" d="M529.5,627.8v202c-23.1,23.1-65.5,38-65.5,50c2.1,9.4,16.3,0.3,24.7-6.6c-4.5,6.7-14.1,19.4-7.4,23.9
				c5.8,1.7,20.7-17.1,25-22.2c0.3,3.3-8.7,24.3-7.8,26.7c2.8,7.5,12.9,8.7,18,2.6c7.8-9.2,10.4-20.8,16.4-33.8
				c11.8-14.8,28.1-20.7,27.9-29.3V639.5L529.5,627.8z"/>
			<path class="st0" d="M769.5,627.8v202c23.1,23.1,65.5,38,65.5,50c-2.1,9.4-16.3,0.3-24.7-6.6c4.5,6.7,14.1,19.4,7.4,23.9
				c-5.8,1.7-20.7-17.1-25-22.2c-0.3,3.3,8.7,24.3,7.8,26.7c-2.8,7.5-12.9,8.7-18,2.6c-7.8-9.2-10.4-20.8-16.4-33.8
				c-11.8-14.8-28.1-20.7-27.9-29.3V639.5L769.5,627.8z"/>
			<ellipse id="tete_30_" class="st1" cx="648.7" cy="460.3" rx="243.1" ry="192.1"/>
			<path id="fond_51_" class="st1" d="M860,469.4c-49.2,38.8-95.1,64.2-138.3,78.5l-0.1,0.1c-63.1,20.8-120.3,17.6-173.2-2.6h-0.1
				c-41.8-15.9-80.9-42.5-118.2-76.2c30.3-29,60.1-52.3,89.6-69.9v-0.1c12-7.1,24-13.4,35.9-18.6c61.2-27.1,120.6-29,178.2-5.6
				c1.3,0.5,2.5,1.1,3.8,1.6C779.3,394.1,820.1,425.1,860,469.4z"/>
			<path id="iris_30_" class="st1" d="M775.7,460.4c0,28.5-9.1,54.8-24.7,76.3c-10,4.4-19.7,8.1-29.3,11.2l-0.1,0.1
				c-63.1,20.8-120.3,17.6-173.2-2.6h-0.1c-1.3-0.5-2.5-1-3.8-1.5c-18.8-22.7-30.1-51.8-30.1-83.4c0-25.6,7.3-49.5,20.2-69.7
				c7-3.8,14-7.2,21-10.2c61.2-27.1,120.6-29,178.2-5.6c1.3,0.5,2.5,1.1,3.8,1.6c4,1.7,8.1,3.6,12.1,5.6v0.1
				C766,403.9,775.7,431,775.7,460.4z"/>
			<path id="pupille_30_" class="st2" d="M745.8,426.5c0,55.7-45.1,100.7-100.7,100.7s-100.7-45.1-100.7-100.7
				c0-16.7,4-32.2,11.2-46v-0.1h0.1c60.1-26.6,118.5-28.9,175.2-6.7C740.3,389,745.8,407.2,745.8,426.5z"/>
			<path class="st0" d="M645,578.1c-18.9,54.8-24.4,94.6-9.8,111.4c5,5.8,14.5,5.7,18.9-0.6C667.8,669.6,655.7,623.1,645,578.1z"/>
			<path class="st0" d="M793.1,543.8c9.4,46.5,21.9,76.8,39.2,82.6c5.9,2,12.6-2,13.1-8.2C847,598.8,819.2,571.1,793.1,543.8z"/>
			<path class="st0" d="M512.4,543.8c-9.4,46.5-21.9,76.8-39.2,82.6c-5.9,2-12.6-2-13.1-8.2C458.6,598.8,486.3,571.1,512.4,543.8z"
				/>
			<path class="st0" d="M645,339.4c-18.9-54.8-24.4-94.6-9.8-111.4c5-5.8,14.5-5.7,18.9,0.6C667.8,247.9,655.7,294.4,645,339.4z"/>
			<path class="st0" d="M793.1,373.7c9.4-46.5,21.9-76.8,39.2-82.6c5.9-2,12.6,2,13.1,8.2C847,318.7,819.2,346.4,793.1,373.7z"/>
			<path class="st0" d="M512.4,373.7c-9.4-46.5-21.9-76.8-39.2-82.6c-5.9-2-12.6,2-13.1,8.2C458.6,318.7,486.3,346.4,512.4,373.7z"
				/>
		</g>
		<polyline class="st3" points="881.8,342.3 881.8,342.3 879.2,352.4 		"/>
		<g>
			<polyline class="st4" points="902.9,258.5 1012.4,239.2 786.6,61 495.4,112.1 586.7,183 			"/>
			<path class="st4" d="M857.6,354.8c-49.9-14.9-108.9-24-142.1-7.8c-31.3-40.1-100.2-62.6-153.7-65.3l28.7-114.2
				c120.9-44.2,237.7-21,315.2,79.3L885,329.6l0,0"/>
			<line class="st4" x1="869.3" y1="315.5" x2="869.3" y2="128.8"/>
			<circle class="st4" cx="869.3" cy="332.4" r="15.9"/>
			<path class="st4" d="M876,346.8c5.6,8.2,8.4,17.6,8.7,28h-15.4H854c-0.8-10.2,2.2-19.5,8.5-28.1"/>
		</g>
	</g>
</g>
</svg>
