<?xml version="1.0" encoding="utf-8"?>
<!-- Generator: Adobe Illustrator 23.0.0, SVG Export Plug-In . SVG Version: 6.00 Build 0)  -->
<svg version="1.1" id="Calque_1" xmlns="http://www.w3.org/2000/svg" xmlns:xlink="http://www.w3.org/1999/xlink" x="0px" y="0px"
	 viewBox="0 0 769 768" style="enable-background:new 0 0 769 768;" xml:space="preserve">
<style type="text/css">
	.st0{fill:#C1272D;}
	.st1{fill:#0F1011;}
</style>
<g>
	<g>
		
			<image style="overflow:visible;opacity:0.75;" width="786" height="715" xlink:href="FE8C6F5D.png"  transform="matrix(1 0 0 1 23.8717 48.8876)">
		</image>
		<g>
			<path class="st0" d="M685.3,646.6H73.8c-4.1,0-7.4-3.3-7.4-7.4v-540c0-4.1,3.3-7.4,7.4-7.4h611.6c4.1,0,7.4,3.3,7.4,7.4v540
				C692.7,643.3,689.4,646.6,685.3,646.6z"/>
		</g>
	</g>
	<g>
		<path class="st1" d="M600,484.9c-2.8,3.3-5.3,7-8.5,9.8c-23,19.4-46.2,38.6-69.3,57.9c-1.3,1.1-2.6,2.3-4,3.3
			c-4.4,3.2-9.1,3.9-13.9,1.4c-4.7-2.4-7-6.5-7-11.8c0-11.1,0-22.2,0-33.3c0-1.4,0-2.9,0-4.8c-7.1,0-13.8,0-20.6,0
			c-19.6,0.1-37.8-4.9-54.6-15.1c-14.2-8.6-25.4-20.3-34.2-34.4c-27.3-43.8-54.7-87.5-82.1-131.3c-8.8-14-21.3-22.2-37.7-24.4
			c-2.5-0.3-5.1-0.3-7.6-0.3c-23.8,0-47.6,0-71.4,0c0-17.1,0-34.3,0-51.4c23.8,0,47.6-0.1,71.4,0c37.6,0.2,67.3,15.8,87.8,47.4
			c20.4,31.5,40,63.6,59.9,95.5c8,12.8,15.9,25.7,24.1,38.4c10.3,15.9,25.1,24,44,24.2c6.8,0.1,13.6,0,21,0c0-1.6,0-3,0-4.4
			c0-11,0.1-21.9,0-32.9c0-5.7,2.1-10.2,7.4-12.7c5.3-2.5,10.1-1.4,14.5,2.3c25.3,21.1,50.6,42.1,75.8,63.3c2.1,1.8,3.4,4.6,5.1,7
			C600,480.6,600,482.7,600,484.9z"/>
		<path class="st1" d="M600,279.3c-2.7,3.2-5.1,6.9-8.2,9.5c-23.5,19.8-47.2,39.5-70.8,59.2c-1.1,0.9-2.2,1.9-3.5,2.7
			c-4.2,2.8-8.7,3.3-13.3,1c-4.6-2.4-6.9-6.2-7-11.3c-0.1-11.2,0-22.5,0-33.7c0-1.5,0-2.9,0-4.7c-18.6-0.4-37.4-2.5-52.9,10.7
			c-4.4,3.8-8.5,8.2-11.8,13c-5.6,8-10.5,16.5-15.6,24.7c-0.8,1.2-1.6,2.4-2.7,3.9c-1.1-1.5-1.9-2.6-2.5-3.7
			c-8.6-13.8-17.3-27.6-25.8-41.5c-0.8-1.3-1.3-3.7-0.6-4.9c14.8-25.6,36.1-43,64.9-50.6c11.8-3.1,23.8-3.4,35.8-3.2
			c3.6,0.1,7.2,0,11.3,0c0-1.7,0-3.1,0-4.5c0-11,0-21.9,0-32.9c0-5.7,2.1-10.2,7.4-12.7c5.3-2.5,10.1-1.3,14.5,2.3
			c25.3,21.1,50.6,42.1,75.7,63.3c2.1,1.8,3.4,4.6,5.1,7C600,275.1,600,277.2,600,279.3z"/>
		<path class="st1" d="M188.9,456c23.7,0,47.4,0,71.1,0c20.1,0,35.5-8.4,46.2-25.5c4.8-7.7,9.6-15.4,14.4-23.2
			c0.8-1.2,1.6-2.4,2.6-3.9c1,1.4,1.7,2.3,2.3,3.3c8.8,14.1,17.6,28.1,26.3,42.3c0.7,1.2,1.1,3.5,0.4,4.6c-14.4,24.9-35,42.5-63,50
			c-9.4,2.5-19.5,3.5-29.3,3.7c-23.7,0.5-47.4,0.2-71,0.2C188.9,490.2,188.9,473.1,188.9,456z"/>
	</g>
</g>
</svg>
