<?xml version="1.0" encoding="utf-8"?>
<!-- Generator: Adobe Illustrator 23.0.0, SVG Export Plug-In . SVG Version: 6.00 Build 0)  -->
<svg version="1.1" id="Calque_1" xmlns="http://www.w3.org/2000/svg" xmlns:xlink="http://www.w3.org/1999/xlink" x="0px" y="0px"
	 viewBox="0 0 769 768" style="enable-background:new 0 0 769 768;" xml:space="preserve">
<style type="text/css">
	.st0{fill:none;stroke:#BA3941;stroke-width:11.0172;stroke-linecap:round;stroke-linejoin:round;stroke-miterlimit:10;}
	.st1{fill:none;stroke:#BA3941;stroke-width:11.0172;stroke-miterlimit:10;}
	.st2{fill:none;stroke:#BA3941;stroke-width:11.0172;stroke-linejoin:bevel;stroke-miterlimit:10;}
</style>
<g id="photo_10_">
	
		<image style="overflow:visible;opacity:0.75;" width="683" height="802" xlink:href="7916D0B3.png"  transform="matrix(1 0 0 1 70.9139 53.9139)">
	</image>
	<g>
		<g>
			<path class="st0" d="M285.5,568l0.7,200.4l-36.1,0.1l-0.8-213.9c0,0,0,0,0,0l36,13.3C285.5,568,285.5,568,285.5,568z"/>
			<polygon class="st0" points="525.7,553.7 526.5,767.6 490.3,767.7 489.6,567.3 			"/>
			
				<ellipse id="tete_12_" transform="matrix(1 -3.507801e-03 3.507801e-03 1 -1.2654 1.3559)" class="st1" cx="385.9" cy="361.4" rx="279.9" ry="221.1"/>
			<path id="fond_12_" class="st1" d="M629.2,371c-56.5,44.9-109.3,74.4-158.9,90.9l-0.1,0.1c-72.6,24.2-138.4,20.8-199.5-2.3
				l-0.1,0c-48.2-18.2-93.3-48.6-136.5-87.3c34.8-33.5,69-60.5,102.8-80.9l0-0.1c13.8-8.3,27.6-15.5,41.3-21.6
				c70.4-31.5,138.7-33.9,205.2-7.2c1.4,0.6,2.9,1.2,4.3,1.8C536,284.7,583.1,320.2,629.2,371z"/>
			<path id="iris_12_" class="st1" d="M532.2,361c0.1,32.8-10.3,63.1-28.1,87.9c-11.5,5.1-22.6,9.4-33.7,13.1l-0.1,0.1
				c-72.6,24.2-138.4,20.8-199.5-2.3l-0.1,0c-1.4-0.5-2.9-1.1-4.3-1.7c-21.8-26-34.9-59.5-35-95.9c-0.1-29.5,8.2-57,22.9-80.3
				c8.1-4.4,16.1-8.4,24.1-11.9c70.4-31.5,138.7-33.9,205.2-7.2c1.4,0.6,2.9,1.2,4.3,1.8c4.6,2,9.3,4.1,13.9,6.3l0,0.1
				C520.8,296,532.1,327.1,532.2,361z"/>
			<path id="pupille_12_" class="st2" d="M497.6,322.1c0.2,64.1-51.6,116.2-115.6,116.4S265.8,387,265.6,322.9
				c-0.1-19.2,4.5-37.1,12.7-53l0-0.1l0.1,0c69.1-30.9,136.3-33.8,201.7-8.5C491.1,279,497.5,299.8,497.6,322.1z"/>
			<path class="st0" d="M382.2,497.1c-21.5,63.2-27.8,109-10.8,128.3c5.8,6.6,16.7,6.5,21.7-0.7
				C408.8,602.3,394.7,548.8,382.2,497.1z"/>
			<path class="st1" d="M552.5,456.9c11,53.4,25.6,88.3,45.5,94.9c6.8,2.3,14.5-2.4,15-9.5C614.8,520.1,582.7,488.2,552.5,456.9z"/>
			<path class="st0" d="M229.4,458.1c-10.6,53.5-24.9,88.5-44.8,95.2c-6.8,2.3-14.5-2.2-15.1-9.4
				C167.6,521.6,199.4,489.6,229.4,458.1z"/>
			<path class="st0" d="M381.2,222.2c-22-63.1-28.5-108.8-11.7-128.3c5.7-6.6,16.7-6.6,21.8,0.6
				C407.1,116.8,393.3,170.3,381.2,222.2z"/>
			<path class="st0" d="M551.8,261.1c10.6-53.5,24.9-88.5,44.8-95.2c6.8-2.3,14.5,2.2,15.1,9.4C613.7,197.5,581.8,229.6,551.8,261.1
				z"/>
			<path class="st0" d="M228.7,262.2c-11-53.4-25.6-88.3-45.5-94.9c-6.8-2.3-14.5,2.4-15,9.5C166.4,199.1,198.5,230.9,228.7,262.2z"
				/>
		</g>
	</g>
</g>
</svg>
